<?xml version="1.0"?>
<svg xmlns="http://www.w3.org/2000/svg" xmlns:xlink="http://www.w3.org/1999/xlink" xmlns:svgjs="http://svgjs.com/svgjs" version="1.1" width="512" height="512" x="0" y="0" viewBox="0 0 512 512" style="enable-background:new 0 0 512 512" xml:space="preserve" class=""><g><g xmlns="http://www.w3.org/2000/svg"><g fill="#f79caf"><circle cx="72" cy="72" r="72" fill="#ffaebf" data-original="#f79caf" style="" class=""/><circle cx="72" cy="256" r="72" fill="#ffaebf" data-original="#f79caf" style="" class=""/><circle cx="72" cy="440" r="72" fill="#ffaebf" data-original="#f79caf" style="" class=""/></g><path d="m512 72c0 39.7-32.3 72-72 72h-192c-39.7 0-72-32.3-72-72s32.3-72 72-72h192c39.7 0 72 32.3 72 72z" fill="#afe1ff" data-original="#acebe2" style="" class=""/><path d="m512 256c0 39.7-32.3 72-72 72h-192c-39.7 0-72-32.3-72-72s32.3-72 72-72h192c39.7 0 72 32.3 72 72z" fill="#afe1ff" data-original="#acebe2" style="" class=""/><path d="m512 440c0 39.7-32.3 72-72 72h-192c-39.7 0-72-32.3-72-72s32.3-72 72-72h192c39.7 0 72 32.3 72 72z" fill="#afe1ff" data-original="#acebe2" style="" class=""/><path d="m144 72c0 39.7-32.3 72-72 72-5.5 0-10.85-.62-16-1.8 32.03-7.29 56-36 56-70.2s-23.97-62.91-56-70.2c5.15-1.18 10.5-1.8 16-1.8 39.7 0 72 32.3 72 72z" fill="#e3889b" data-original="#e3889b" style="" class=""/><path d="m144 256c0 39.7-32.3 72-72 72-5.5 0-10.85-.62-16-1.8 32.03-7.29 56-36 56-70.2s-23.97-62.91-56-70.2c5.15-1.18 10.5-1.8 16-1.8 39.7 0 72 32.3 72 72z" fill="#e3889b" data-original="#e3889b" style="" class=""/><path d="m144 440c0 39.7-32.3 72-72 72-5.5 0-10.85-.62-16-1.8 32.03-7.29 56-36 56-70.2s-23.97-62.91-56-70.2c5.15-1.18 10.5-1.8 16-1.8 39.7 0 72 32.3 72 72z" fill="#e3889b" data-original="#e3889b" style="" class=""/><path d="m512 72c0 39.7-32.3 72-72 72h-32c39.7 0 72-32.3 72-72s-32.3-72-72-72h32c39.7 0 72 32.3 72 72z" fill="#79d9ff" data-original="#98d7ce" style="" class=""/><path d="m512 256c0 39.7-32.3 72-72 72h-32c39.7 0 72-32.3 72-72s-32.3-72-72-72h32c39.7 0 72 32.3 72 72z" fill="#79d9ff" data-original="#98d7ce" style="" class=""/><path d="m512 440c0 39.7-32.3 72-72 72h-32c39.7 0 72-32.3 72-72s-32.3-72-72-72h32c39.7 0 72 32.3 72 72z" fill="#79d9ff" data-original="#98d7ce" style="" class=""/></g></g></svg>
